<svg xmlns="http://www.w3.org/2000/svg" xmlns:xlink="http://www.w3.org/1999/xlink" width="13" height="15" viewBox="0 0 13 15"><defs><path id="2frpa" d="M425.19 3860.414c0 .723-.137 1.357-.41 1.904a3.89 3.89 0 0 1-1.104 1.358 5.106 5.106 0 0 1-1.802.918c-.655.182-1.486.273-2.495.273h-5.82v-14.541h5.136c1.068 0 1.877.04 2.427.122.55.082 1.066.253 1.548.513.52.28.91.654 1.167 1.123s.385 1.009.385 1.621c0 .71-.177 1.341-.532 1.895a3.13 3.13 0 0 1-1.47 1.22v.078c.899.19 1.618.575 2.159 1.158.54.583.81 1.368.81 2.358zm-4.678-5.977c0-.234-.06-.475-.181-.722a1.09 1.09 0 0 0-.562-.537 2.319 2.319 0 0 0-.854-.171c-.329-.01-.819-.015-1.47-.015h-.254v3.076h.46c.624 0 1.062-.006 1.313-.02a2.1 2.1 0 0 0 .776-.204c.293-.137.495-.326.605-.567.111-.24.166-.52.166-.84zm.917 5.909c0-.45-.09-.801-.273-1.055-.182-.254-.456-.446-.82-.576-.222-.085-.526-.132-.913-.142a67.29 67.29 0 0 0-1.558-.015h-.674v3.643h.195c.95 0 1.608-.006 1.973-.02.365-.012.736-.1 1.113-.263.332-.143.575-.353.728-.63.153-.277.23-.59.23-.942z"/></defs><g><g transform="translate(-413 -3850)"><use fill="#fff" xlink:href="#2frpa"/></g></g></svg>